<svg id="Person" xmlns="http://www.w3.org/2000/svg" viewBox="0 0 98.44 85.57">
  <circle id="Head" class="cls-1" cx="52.13" cy="28.59" r="18.97" transform="translate(-5.56 3.12) rotate(-13.28)"/>
  <path id="Body" class="cls-1" d="M96.94,31.06a10.85,10.85,0,0,0-3.15-2.89,5.57,5.57,0,0,0-4.18-.44l-.45.06a2.74,2.74,0,0,0-.65.29,2.28,2.28,0,0,0-.9.37,3.86,3.86,0,0,0-.57.3,1.76,1.76,0,0,0-.34.25A8.46,8.46,0,0,0,85,30.13a3.79,3.79,0,0,0-.34.2,4.28,4.28,0,0,1-.81.78,3.56,3.56,0,0,1-.76.74L82.19,33c-.11.13-.2.26-.31.38-3.41,3.22-6.14,7-9.49,10.34A48.47,48.47,0,0,1,66,49c-.32.22-.69.5-1.08.79l-.49.22c-2.39,1.18-4.49,2.37-7.1,2.81-1.51.26-3,.49-4.42.66h-.23a23.43,23.43,0,0,1-15-5,5.31,5.31,0,0,0-.95-.57l-.21-.19a6.34,6.34,0,0,1-.79-.57c.84.71-.09,0-.3-.2s-.68-.47-1-.71L34,45.83c-.16-.11-.33-.23-.49-.36-.8-.65-1.58-1.33-2.34-2a4.37,4.37,0,0,1-1.07-1.16h0a15.59,15.59,0,0,0-1.87-2.1c-.89-.93-1.77-1.86-2.64-2.8-.7-.76-1.37-1.54-2.05-2.31A22.94,22.94,0,0,0,22,33.3c-.43-.47-.9-.9-1.3-1.39,0-.05-.09-.12-.14-.18s0,0-.1-.12l.06.07a.52.52,0,0,0-.1-.11l0,0,0,0L20,31c-.17-.23-.34-.45-.52-.66a2.64,2.64,0,0,1-.57-.53c-.31-.38-.65-.74-1-1.11l-.31-.25a.71.71,0,0,0-.08-.15c-.33-.34-.66-.68-1-1l0,0c-.31-.37-.62-.75-.94-1.11-.86-.66-1.7-1.34-2.55-2a2.78,2.78,0,0,1-.43-.41,11.7,11.7,0,0,0-4.14-2A8.69,8.69,0,0,0,1.14,26a6.45,6.45,0,0,0,.37,6.65,4.75,4.75,0,0,1,.78,1.06l.2.17.2.16.43.54.09.13.1.1c1.65,2,3.3,4.06,5,6C9.27,41.94,10.26,43,11.19,44c.21.24.4.48.61.71l0,0,.06.09.27.38q.26.38.48.78h0a4.52,4.52,0,0,1,1,1.37,4.93,4.93,0,0,1,.69.89l0,0a51.18,51.18,0,0,1,4.17,6.19,4.71,4.71,0,0,1,.89,1.61,4.73,4.73,0,0,1,.64,1,3.35,3.35,0,0,1,.51.95c.08.12.15.25.22.38a14.48,14.48,0,0,1,.9,1.31c.66,1.15,1.21,2.28,1.94,3.39a23.69,23.69,0,0,1,2.67,5c.22.4.43.8.62,1.22a94.93,94.93,0,0,1,3.8,9.66,11.83,11.83,0,0,1,.87,4.27,9.33,9.33,0,0,1,.09,2.11c0,.34-.08.67-.14,1s0,.52,0,.79c-.18,1.54-.53,3-.79,4.58l0,.18v0a2.51,2.51,0,0,0,0,.55h-.07c-.13.79-.26,1.59-.43,2.37h2.41a2,2,0,0,0,.5.07q15.47.33,30.93,0l.34,0,.49,0a10.33,10.33,0,0,1,1.67,0l.16,0H69.5V92.6h0a2,2,0,0,0,.05-.34c-.07-.46-.12-.92-.16-1.39a4.22,4.22,0,0,1-.07-.61l0-.56a5.35,5.35,0,0,1-.07-.7c0-.24,0-.48,0-.72v-.13a4,4,0,0,1,0-.5,18.82,18.82,0,0,1,0-2.13c0-.47.07-.93.13-1.38A18.11,18.11,0,0,1,71,76.94a34.63,34.63,0,0,1,3.47-6.5,76.91,76.91,0,0,1,6-9,41,41,0,0,1,5.75-7,6,6,0,0,1,.88-1.23c.54-.57,1.21-1.06,1.8-1.58l.32-.27a3.22,3.22,0,0,1,.28-.24c.12-.17.24-.33.37-.49A22.32,22.32,0,0,1,92,48.42a32.59,32.59,0,0,1,2.47-2.92c.85-.88,1.68-1.83,2.53-2.75.08-.17.14-.34.23-.5.2-.34.38-.68.56-1v0c0-.11.07-.22.11-.33l0,0a9.1,9.1,0,0,0,.42-1,7.85,7.85,0,0,0,.26-1,10,10,0,0,0,.17-1.22c0-.07,0-.15,0-.22s0-.06,0-.1a.27.27,0,0,0,0-.09,8.59,8.59,0,0,0,.08-1.13A8.24,8.24,0,0,0,96.94,31.06Z" transform="translate(-0.39 -9.63)"/>
</svg>
