<svg class="c-redButton" id="Red_Button" data-name="Red Button" xmlns="http://www.w3.org/2000/svg" viewBox="0 0 422.44 375.38">

  <path class="c-redButton-edge" id="Edge" class="cls-1" d="M495.41,312.7c0-32.28-14-62.2-37.8-86.81-.06.9-.14,1.79-.23,2.68v79.06c0,.64,0,1.28,0,1.92s0,1.28,0,1.92v.16h0c-1.59,65.6-77.9,118.43-171.83,118.43-90.39,0-164.48-48.93-171.35-111.07h-.52V230.7a86.12,86.12,0,0,0,5.94,21.62,84.81,84.81,0,0,1-6.27-29C88,248.38,73,279.28,73,312.7c0,2.11.08,4.2.2,6.29-.12,2.08-.2,4.18-.2,6.29,0,84,94.57,152.05,211.22,152.05s211.22-68.08,211.22-152c0-2.11-.08-4.21-.19-6.29C495.33,316.9,495.41,314.81,495.41,312.7Z" transform="translate(-72.97 -101.95)"/>
  <g id="Push">
    <path class="c-redButton-side" id="Side" class="cls-2" d="M457,307.61v-87.2c-.74,65-77.56,117.51-172.23,117.51-89.63,0-163.26-47.08-171.48-107.24V319h.52c6.87,62.15,81,111.08,171.35,111.08,93.93,0,170.25-52.84,171.84-118.44h0v-.16c0-.64,0-1.28,0-1.92S457,308.25,457,307.61Z" transform="translate(-72.97 -101.95)"/>
    <ellipse class="c-redButton-circle" id="Circle" class="cls-3" cx="212.22" cy="118.45" rx="172.25" ry="118.45"/>
  </g>
</svg>
