<svg id="Layer_1" data-name="Layer 1" xmlns="http://www.w3.org/2000/svg" viewBox="0 0 197.59 197.59">
  <defs>
    <style>
      .cls-1 {
        fill: #fdc845;
      }

      .cls-2 {
        fill: #d3880b;
      }
    </style>
  </defs>
  <circle id="Rand" class="cls-1" cx="98.8" cy="98.8" r="98.8"/>
  <circle id="background" class="cls-2" cx="99" cy="99.01" r="76.61"/>
  <path id="euro" class="cls-1" d="M127.89,133.64a3.43,3.43,0,0,0-.51-.87,3,3,0,0,0-1-.72,9,9,0,0,0-4.83-.87,20.53,20.53,0,0,0-3.26.84c-1.55.4-3.12.75-4.7,1a46.56,46.56,0,0,1-12.25.59,32,32,0,0,1-13.14-4A31.42,31.42,0,0,1,76.9,118v-.54s26.33,0,26.33,0h2.43a6.26,6.26,0,0,0,0-12.52h-2.43v-.11H72V94.22q16.89.11,33.92.12c.46-.09.92-.17,1.38-.28l.42-.08a2.14,2.14,0,0,1,.35-.19l.78-.41A12,12,0,0,0,110,92.07a6.23,6.23,0,0,0,.11-8.91l-.3-.21a6.7,6.7,0,0,0-2.26-1.4,12.43,12.43,0,0,0-1.93-.49H77.16c11.13-17.62,28.31-17.13,37.92-15.13a4.06,4.06,0,0,1,1.14.19c.75.25,1.52.43,2.27.69a12.54,12.54,0,0,1,2.21,1L121,68a4.47,4.47,0,0,0,3.54-.18,8.2,8.2,0,0,0,3.72-3,6.15,6.15,0,0,0,.91-4.64,8.36,8.36,0,0,0-1.71-3.27,4.3,4.3,0,0,0-1.2-1.13,8.86,8.86,0,0,1-1-.54L125,55a14.7,14.7,0,0,1-1.68-.73c-.71-.24-1.43-.48-2.17-.69a52.45,52.45,0,0,0-13.72-1.81C86.54,51.77,68.65,64,61.11,81.3h-6a6.26,6.26,0,1,0,0,12.51h2.59a46.92,46.92,0,0,0-.38,5.83,45.89,45.89,0,0,0,.31,5.27H55.08a6.26,6.26,0,1,0,0,12.52h5.8c7.4,17.63,25.44,30.08,46.54,30.08a53,53,0,0,0,9.57-.87c1.51-.28,3-.63,4.51-1,.73-.2,1.48-.4,2.19-.67a13.24,13.24,0,0,0,2-1.08,7.27,7.27,0,0,0,1.65-1.2,7.11,7.11,0,0,0,1.43-3.82,8.37,8.37,0,0,0,.18-2.11A8.88,8.88,0,0,0,127.89,133.64Z" transform="translate(-1.08 -0.85)"/>
</svg>
